<svg xmlns="http://www.w3.org/2000/svg" viewBox="0 0 1200 900"><defs><radialGradient id="bg"><stop stop-color="#0052ff" stop-opacity=".42"/><stop offset="1" stop-color="#08090f"/></radialGradient><linearGradient id="metal" x1="0" x2="1" y1="0" y2="1"><stop stop-color="#070a14"/><stop offset=".17" stop-color="#77b7ff"/><stop offset=".26" stop-color="#f1f6ff"/><stop offset=".35" stop-color="#0052ff"/><stop offset=".58" stop-color="#060613"/><stop offset=".78" stop-color="#77b7ff"/><stop offset="1" stop-color="#141222"/></linearGradient></defs><rect width="1200" height="900" fill="#08090f"/><ellipse cx="600" cy="440" rx="610" ry="580" fill="url(#bg)"/><g><ellipse cx="600" cy="465" rx="235" ry="345" transform="rotate(-57 600 465)" fill="none" stroke="url(#metal)" stroke-width="23" opacity="1"/><ellipse cx="600" cy="465" rx="218" ry="319" transform="rotate(-40 600 465)" fill="none" stroke="url(#metal)" stroke-width="22" opacity="0.925"/><ellipse cx="600" cy="465" rx="201" ry="293" transform="rotate(-23 600 465)" fill="none" stroke="url(#metal)" stroke-width="21" opacity="0.85"/><ellipse cx="600" cy="465" rx="184" ry="267" transform="rotate(-6 600 465)" fill="none" stroke="url(#metal)" stroke-width="20" opacity="0.775"/><ellipse cx="600" cy="465" rx="167" ry="241" transform="rotate(11 600 465)" fill="none" stroke="url(#metal)" stroke-width="19" opacity="0.7"/><ellipse cx="600" cy="465" rx="150" ry="215" transform="rotate(28 600 465)" fill="none" stroke="url(#metal)" stroke-width="18" opacity="0.625"/><ellipse cx="600" cy="465" rx="133" ry="189" transform="rotate(45 600 465)" fill="none" stroke="url(#metal)" stroke-width="17" opacity="0.55"/><ellipse cx="600" cy="465" rx="116" ry="163" transform="rotate(62 600 465)" fill="none" stroke="url(#metal)" stroke-width="16" opacity="0.475"/></g><circle cx="600" cy="465" r="120" fill="#090c18" stroke="#77b7ff" stroke-opacity=".4"/><text x="600" y="500" font-family="Arial,sans-serif" font-size="105" letter-spacing="-8" fill="#f5f5fa" text-anchor="middle">90</text><circle cx="303" cy="290" r="19" fill="#77b7ff"/><circle cx="885" cy="590" r="10" fill="#0052ff"/><text x="55" y="845" font-family="monospace" font-size="13" letter-spacing="3" fill="#a3a7b8">KINETIQS / ORIGINAL CONCEPT ARTWORK</text></svg>