<svg xmlns="http://www.w3.org/2000/svg" viewBox="0 0 1200 1200"><defs><radialGradient id="g"><stop stop-color="#0052ff" stop-opacity=".45"/><stop offset=".55" stop-color="#7000ff" stop-opacity=".12"/><stop offset="1" stop-color="#050508" stop-opacity="0"/></radialGradient><linearGradient id="m" x1="0" y1="0" x2="1" y2="1"><stop stop-color="#08102b"/><stop offset=".17" stop-color="#a7c3ff"/><stop offset=".26" stop-color="#f6f8ff"/><stop offset=".32" stop-color="#0052ff"/><stop offset=".5" stop-color="#100828"/><stop offset=".73" stop-color="#7000ff"/><stop offset=".84" stop-color="#f4d19d"/><stop offset="1" stop-color="#0b0920"/></linearGradient><radialGradient id="orb" cx=".3" cy=".26"><stop stop-color="#d5e6ff"/><stop offset=".23" stop-color="#3976ff"/><stop offset=".55" stop-color="#070c1e"/><stop offset=".84" stop-color="#9145fa"/><stop offset="1" stop-color="#050508"/></radialGradient></defs><circle cx="600" cy="600" r="590" fill="url(#g)"/><ellipse cx="600" cy="600" rx="230" ry="110.39999999999999" transform="rotate(0 600 600)" stroke="url(#m)" stroke-width="11" fill="none" opacity="0.35"/><ellipse cx="600" cy="600" rx="236" ry="113.28" transform="rotate(12.86 600 600)" stroke="url(#m)" stroke-width="3" fill="none" opacity="0.43"/><ellipse cx="600" cy="600" rx="242" ry="116.16" transform="rotate(25.72 600 600)" stroke="url(#m)" stroke-width="3" fill="none" opacity="0.51"/><ellipse cx="600" cy="600" rx="248" ry="119.03999999999999" transform="rotate(38.58 600 600)" stroke="url(#m)" stroke-width="11" fill="none" opacity="0.59"/><ellipse cx="600" cy="600" rx="254" ry="121.92" transform="rotate(51.44 600 600)" stroke="url(#m)" stroke-width="3" fill="none" opacity="0.6699999999999999"/><ellipse cx="600" cy="600" rx="260" ry="124.8" transform="rotate(64.3 600 600)" stroke="url(#m)" stroke-width="3" fill="none" opacity="0.75"/><ellipse cx="600" cy="600" rx="266" ry="127.67999999999999" transform="rotate(77.16 600 600)" stroke="url(#m)" stroke-width="11" fill="none" opacity="0.83"/><ellipse cx="600" cy="600" rx="272" ry="130.56" transform="rotate(90.02 600 600)" stroke="url(#m)" stroke-width="3" fill="none" opacity="0.35"/><ellipse cx="600" cy="600" rx="278" ry="133.44" transform="rotate(102.88 600 600)" stroke="url(#m)" stroke-width="3" fill="none" opacity="0.43"/><ellipse cx="600" cy="600" rx="284" ry="136.32" transform="rotate(115.74 600 600)" stroke="url(#m)" stroke-width="11" fill="none" opacity="0.51"/><ellipse cx="600" cy="600" rx="290" ry="139.2" transform="rotate(128.6 600 600)" stroke="url(#m)" stroke-width="3" fill="none" opacity="0.59"/><ellipse cx="600" cy="600" rx="296" ry="142.07999999999998" transform="rotate(141.45999999999998 600 600)" stroke="url(#m)" stroke-width="3" fill="none" opacity="0.6699999999999999"/><ellipse cx="600" cy="600" rx="302" ry="144.96" transform="rotate(154.32 600 600)" stroke="url(#m)" stroke-width="11" fill="none" opacity="0.75"/><ellipse cx="600" cy="600" rx="308" ry="147.84" transform="rotate(167.18 600 600)" stroke="url(#m)" stroke-width="3" fill="none" opacity="0.83"/><ellipse cx="600" cy="600" rx="314" ry="150.72" transform="rotate(180.04 600 600)" stroke="url(#m)" stroke-width="3" fill="none" opacity="0.35"/><ellipse cx="600" cy="600" rx="320" ry="153.6" transform="rotate(192.89999999999998 600 600)" stroke="url(#m)" stroke-width="11" fill="none" opacity="0.43"/><ellipse cx="600" cy="600" rx="326" ry="156.48" transform="rotate(205.76 600 600)" stroke="url(#m)" stroke-width="3" fill="none" opacity="0.51"/><ellipse cx="600" cy="600" rx="332" ry="159.35999999999999" transform="rotate(218.62 600 600)" stroke="url(#m)" stroke-width="3" fill="none" opacity="0.59"/><ellipse cx="600" cy="600" rx="338" ry="162.23999999999998" transform="rotate(231.48 600 600)" stroke="url(#m)" stroke-width="11" fill="none" opacity="0.6699999999999999"/><ellipse cx="600" cy="600" rx="344" ry="165.12" transform="rotate(244.33999999999997 600 600)" stroke="url(#m)" stroke-width="3" fill="none" opacity="0.75"/><ellipse cx="600" cy="600" rx="350" ry="168" transform="rotate(257.2 600 600)" stroke="url(#m)" stroke-width="3" fill="none" opacity="0.83"/><ellipse cx="600" cy="600" rx="356" ry="170.88" transform="rotate(270.06 600 600)" stroke="url(#m)" stroke-width="11" fill="none" opacity="0.35"/><ellipse cx="600" cy="600" rx="362" ry="173.76" transform="rotate(282.91999999999996 600 600)" stroke="url(#m)" stroke-width="3" fill="none" opacity="0.43"/><ellipse cx="600" cy="600" rx="368" ry="176.64" transform="rotate(295.78 600 600)" stroke="url(#m)" stroke-width="3" fill="none" opacity="0.51"/><ellipse cx="600" cy="600" rx="374" ry="179.51999999999998" transform="rotate(308.64 600 600)" stroke="url(#m)" stroke-width="11" fill="none" opacity="0.59"/><ellipse cx="600" cy="600" rx="380" ry="182.4" transform="rotate(321.5 600 600)" stroke="url(#m)" stroke-width="3" fill="none" opacity="0.6699999999999999"/><ellipse cx="600" cy="600" rx="386" ry="185.28" transform="rotate(334.36 600 600)" stroke="url(#m)" stroke-width="3" fill="none" opacity="0.75"/><ellipse cx="600" cy="600" rx="392" ry="188.16" transform="rotate(347.21999999999997 600 600)" stroke="url(#m)" stroke-width="11" fill="none" opacity="0.83"/><circle cx="600" cy="600" r="180" fill="url(#orb)"/><circle cx="760.0" cy="600.0" r="2.8" fill="#ffab00" opacity=".6"/><circle cx="440.0" cy="730.5" r="1.1" fill="#80a7ff" opacity=".6"/><circle cx="624.0" cy="357.1" r="1.1" fill="#80a7ff" opacity=".6"/><circle cx="801.4" cy="833.8" r="1.1" fill="#80a7ff" opacity=".6"/><circle cx="217.9" cy="539.9" r="1.1" fill="#80a7ff" opacity=".6"/><circle cx="975.5" cy="387.4" r="1.1" fill="#ffab00" opacity=".6"/><circle cx="469.7" cy="1031.5" r="1.1" fill="#80a7ff" opacity=".6"/><circle cx="503.7" cy="434.9" r="2.8" fill="#80a7ff" opacity=".6"/><circle cx="849.9" cy="681.2" r="1.1" fill="#80a7ff" opacity=".6"/><circle cx="301.4" cy="709.7" r="1.1" fill="#80a7ff" opacity=".6"/><circle cx="761.1" cy="293.7" r="1.1" fill="#ffab00" opacity=".6"/><circle cx="730.8" cy="971.1" r="1.1" fill="#80a7ff" opacity=".6"/><circle cx="172.6" cy="379.6" r="1.1" fill="#80a7ff" opacity=".6"/><circle cx="796.3" cy="561.6" r="1.1" fill="#80a7ff" opacity=".6"/><circle cx="451.6" cy="787.8" r="2.8" fill="#80a7ff" opacity=".6"/><circle cx="559.5" cy="322.0" r="1.1" fill="#ffab00" opacity=".6"/><circle cx="884.5" cy="813.4" r="1.1" fill="#80a7ff" opacity=".6"/><circle cx="171.4" cy="615.8" r="1.1" fill="#80a7ff" opacity=".6"/><circle cx="944.5" cy="294.9" r="1.1" fill="#80a7ff" opacity=".6"/><circle cx="591.1" cy="771.6" r="1.1" fill="#80a7ff" opacity=".6"/><circle cx="439.8" cy="429.2" r="1.1" fill="#ffab00" opacity=".6"/><circle cx="904.3" cy="636.4" r="2.8" fill="#80a7ff" opacity=".6"/><circle cx="301.2" cy="785.0" r="1.1" fill="#80a7ff" opacity=".6"/><circle cx="692.4" cy="234.4" r="1.1" fill="#80a7ff" opacity=".6"/><circle cx="837.7" cy="969.1" r="1.1" fill="#80a7ff" opacity=".6"/><circle cx="423.8" cy="550.0" r="1.1" fill="#ffab00" opacity=".6"/><circle cx="819.7" cy="509.7" r="1.1" fill="#80a7ff" opacity=".6"/><circle cx="484.6" cy="845.5" r="1.1" fill="#80a7ff" opacity=".6"/><circle cx="479.5" cy="301.9" r="2.8" fill="#80a7ff" opacity=".6"/><circle cx="965.6" cy="771.0" r="1.1" fill="#80a7ff" opacity=".6"/><circle cx="145.5" cy="706.6" r="1.1" fill="#ffab00" opacity=".6"/><circle cx="695.7" cy="467.5" r="1.1" fill="#80a7ff" opacity=".6"/><circle cx="639.6" cy="805.3" r="1.1" fill="#80a7ff" opacity=".6"/><circle cx="369.9" cy="441.4" r="1.1" fill="#80a7ff" opacity=".6"/><circle cx="946.8" cy="574.4" r="1.1" fill="#80a7ff" opacity=".6"/><circle cx="325.0" cy="864.6" r="2.8" fill="#ffab00" opacity=".6"/><circle cx="602.2" cy="188.8" r="1.1" fill="#80a7ff" opacity=".6"/><circle cx="713.5" cy="711.4" r="1.1" fill="#80a7ff" opacity=".6"/><circle cx="375.0" cy="581.4" r="1.1" fill="#80a7ff" opacity=".6"/><circle cx="825.4" cy="447.7" r="1.1" fill="#80a7ff" opacity=".6"/><circle cx="539.1" cy="897.7" r="1.1" fill="#ffab00" opacity=".6"/><circle cx="388.6" cy="301.0" r="1.1" fill="#80a7ff" opacity=".6"/><circle cx="1037.9" cy="706.8" r="2.8" fill="#80a7ff" opacity=".6"/><circle cx="456.8" cy="665.4" r="1.1" fill="#80a7ff" opacity=".6"/><circle cx="675.8" cy="418.1" r="1.1" fill="#80a7ff" opacity=".6"/><circle cx="703.7" cy="826.7" r="1.1" fill="#ffab00" opacity=".6"/><circle cx="300.0" cy="473.5" r="1.1" fill="#80a7ff" opacity=".6"/><circle cx="971.7" cy="498.0" r="1.1" fill="#80a7ff" opacity=".6"/><circle cx="374.5" cy="942.5" r="1.1" fill="#80a7ff" opacity=".6"/><circle cx="494.4" cy="162.3" r="2.8" fill="#80a7ff" opacity=".6"/><circle cx="771.2" cy="708.2" r="1.1" fill="#ffab00" opacity=".6"/><circle cx="335.1" cy="629.4" r="1.1" fill="#80a7ff" opacity=".6"/><circle cx="810.0" cy="380.4" r="1.1" fill="#80a7ff" opacity=".6"/><circle cx="613.9" cy="938.9" r="1.1" fill="#80a7ff" opacity=".6"/><circle cx="292.6" cy="322.3" r="1.1" fill="#80a7ff" opacity=".6"/><circle cx="1094.4" cy="622.5" r="1.1" fill="#ffab00" opacity=".6"/><circle cx="444.3" cy="714.5" r="2.8" fill="#80a7ff" opacity=".6"/><circle cx="635.8" cy="371.7" r="1.1" fill="#80a7ff" opacity=".6"/><circle cx="779.2" cy="831.6" r="1.1" fill="#80a7ff" opacity=".6"/><circle cx="236.5" cy="525.6" r="1.1" fill="#80a7ff" opacity=".6"/><circle cx="974.1" cy="411.3" r="1.1" fill="#ffab00" opacity=".6"/><circle cx="449.7" cy="1012.3" r="1.1" fill="#80a7ff" opacity=".6"/><circle cx="519.5" cy="442.9" r="1.1" fill="#80a7ff" opacity=".6"/><circle cx="831.1" cy="687.2" r="2.8" fill="#80a7ff" opacity=".6"/><circle cx="309.7" cy="691.5" r="1.1" fill="#80a7ff" opacity=".6"/><circle cx="771.4" cy="313.2" r="1.1" fill="#ffab00" opacity=".6"/><circle cx="705.6" cy="963.6" r="1.1" fill="#80a7ff" opacity=".6"/><circle cx="198.4" cy="367.7" r="1.1" fill="#80a7ff" opacity=".6"/><circle cx="783.5" cy="572.8" r="1.1" fill="#80a7ff" opacity=".6"/><circle cx="450.3" cy="770.3" r="1.1" fill="#80a7ff" opacity=".6"/><circle cx="576.7" cy="333.8" r="2.8" fill="#ffab00" opacity=".6"/><circle cx="860.9" cy="816.9" r="1.1" fill="#80a7ff" opacity=".6"/><circle cx="186.0" cy="596.4" r="1.1" fill="#80a7ff" opacity=".6"/><circle cx="950.4" cy="319.9" r="1.1" fill="#80a7ff" opacity=".6"/><circle cx="582.7" cy="757.7" r="1.1" fill="#80a7ff" opacity=".6"/><circle cx="458.8" cy="432.8" r="1.1" fill="#ffab00" opacity=".6"/><circle cx="887.0" cy="647.8" r="1.1" fill="#80a7ff" opacity=".6"/><circle cx="303.7" cy="764.2" r="2.8" fill="#80a7ff" opacity=".6"/><circle cx="709.2" cy="252.0" r="1.1" fill="#80a7ff" opacity=".6"/><circle cx="809.4" cy="967.5" r="1.1" fill="#80a7ff" opacity=".6"/><circle cx="440.9" cy="546.7" r="1.1" fill="#ffab00" opacity=".6"/><circle cx="810.7" cy="524.7" r="1.1" fill="#80a7ff" opacity=".6"/><circle cx="477.1" cy="827.9" r="1.1" fill="#80a7ff" opacity=".6"/><circle cx="501.1" cy="309.6" r="1.1" fill="#80a7ff" opacity=".6"/><circle cx="942.4" cy="780.6" r="2.8" fill="#80a7ff" opacity=".6"/><circle cx="154.7" cy="683.1" r="1.1" fill="#ffab00" opacity=".6"/><circle cx="694.5" cy="482.9" r="1.1" fill="#80a7ff" opacity=".6"/><circle cx="626.0" cy="793.5" r="1.1" fill="#80a7ff" opacity=".6"/><circle cx="390.7" cy="439.9" r="1.1" fill="#80a7ff" opacity=".6"/><circle cx="932.8" cy="590.6" r="1.1" fill="#80a7ff" opacity=".6"/><circle cx="320.9" cy="842.4" r="1.1" fill="#ffab00" opacity=".6"/><circle cx="625.0" cy="202.8" r="2.8" fill="#80a7ff" opacity=".6"/><circle cx="919.1" cy="947.2" r="1.1" fill="#80a7ff" opacity=".6"/><circle cx="391.2" cy="573.1" r="1.1" fill="#80a7ff" opacity=".6"/><circle cx="821.5" cy="465.7" r="1.1" fill="#80a7ff" opacity=".6"/><circle cx="525.6" cy="881.6" r="1.1" fill="#ffab00" opacity=".6"/><circle cx="413.3" cy="303.4" r="1.1" fill="#80a7ff" opacity=".6"/><circle cx="1016.9" cy="722.4" r="1.1" fill="#80a7ff" opacity=".6"/><circle cx="147.7" cy="781.2" r="2.8" fill="#80a7ff" opacity=".6"/><circle cx="680.2" cy="434.0" r="1.1" fill="#80a7ff" opacity=".6"/><circle cx="685.6" cy="818.5" r="1.1" fill="#ffab00" opacity=".6"/><circle cx="320.8" cy="466.3" r="1.1" fill="#80a7ff" opacity=".6"/><circle cx="962.6" cy="518.3" r="1.1" fill="#80a7ff" opacity=".6"/><circle cx="363.4" cy="920.6" r="1.1" fill="#80a7ff" opacity=".6"/><circle cx="522.0" cy="171.3" r="1.1" fill="#80a7ff" opacity=".6"/><circle cx="753.0" cy="707.6" r="2.8" fill="#ffab00" opacity=".6"/><circle cx="348.7" cy="616.3" r="1.1" fill="#80a7ff" opacity=".6"/><circle cx="812.0" cy="400.0" r="1.1" fill="#80a7ff" opacity=".6"/><circle cx="594.7" cy="925.7" r="1.1" fill="#80a7ff" opacity=".6"/><circle cx="318.9" cy="318.7" r="1.1" fill="#80a7ff" opacity=".6"/><circle cx="1077.5" cy="643.6" r="1.1" fill="#ffab00" opacity=".6"/><circle cx="450.0" cy="699.3" r="1.1" fill="#80a7ff" opacity=".6"/><circle cx="646.0" cy="386.7" r="2.8" fill="#80a7ff" opacity=".6"/><circle cx="757.8" cy="828.1" r="1.1" fill="#80a7ff" opacity=".6"/><circle cx="255.7" cy="512.8" r="1.1" fill="#80a7ff" opacity=".6"/><circle cx="971.0" cy="434.6" r="1.1" fill="#ffab00" opacity=".6"/><circle cx="431.6" cy="992.4" r="1.1" fill="#80a7ff" opacity=".6"/><circle cx="534.1" cy="451.9" r="1.1" fill="#80a7ff" opacity=".6"/><circle cx="812.3" cy="691.8" r="1.1" fill="#80a7ff" opacity=".6"/><circle cx="319.2" cy="674.4" r="2.8" fill="#80a7ff" opacity=".6"/><circle cx="779.9" cy="332.8" r="1.1" fill="#ffab00" opacity=".6"/><circle cx="681.6" cy="954.9" r="1.1" fill="#80a7ff" opacity=".6"/><circle cx="224.4" cy="357.6" r="1.1" fill="#80a7ff" opacity=".6"/><circle cx="769.9" cy="582.6" r="1.1" fill="#80a7ff" opacity=".6"/><circle cx="450.5" cy="753.2" r="1.1" fill="#80a7ff" opacity=".6"/><circle cx="592.4" cy="346.4" r="1.1" fill="#ffab00" opacity=".6"/><circle cx="837.7" cy="818.9" r="2.8" fill="#80a7ff" opacity=".6"/><circle cx="201.7" cy="578.4" r="1.1" fill="#80a7ff" opacity=".6"/><circle cx="954.3" cy="344.6" r="1.1" fill="#80a7ff" opacity=".6"/><circle cx="575.9" cy="743.5" r="1.1" fill="#80a7ff" opacity=".6"/><circle cx="477.0" cy="437.7" r="1.1" fill="#ffab00" opacity=".6"/><circle cx="869.3" cy="657.6" r="1.1" fill="#80a7ff" opacity=".6"/><circle cx="307.8" cy="744.0" r="1.1" fill="#80a7ff" opacity=".6"/><circle cx="724.3" cy="270.1" r="2.8" fill="#80a7ff" opacity=".6"/><circle cx="781.9" cy="964.4" r="1.1" fill="#80a7ff" opacity=".6"/><circle cx="137.0" cy="420.4" r="1.1" fill="#ffab00" opacity=".6"/><circle cx="800.5" cy="538.7" r="1.1" fill="#80a7ff" opacity=".6"/><circle cx="471.4" cy="810.3" r="1.1" fill="#80a7ff" opacity=".6"/><circle cx="521.5" cy="318.4" r="1.1" fill="#80a7ff" opacity=".6"/><circle cx="919.1" cy="788.5" r="1.1" fill="#80a7ff" opacity=".6"/><circle cx="165.3" cy="660.7" r="2.8" fill="#ffab00" opacity=".6"/><circle cx="910.0" cy="254.3" r="1.1" fill="#80a7ff" opacity=".6"/><circle cx="613.9" cy="781.1" r="1.1" fill="#80a7ff" opacity=".6"/><circle cx="411.0" cy="439.8" r="1.1" fill="#80a7ff" opacity=".6"/><circle cx="917.9" cy="605.5" r="1.1" fill="#80a7ff" opacity=".6"/><circle cx="318.6" cy="820.6" r="1.1" fill="#ffab00" opacity=".6"/><circle cx="646.1" cy="217.7" r="1.1" fill="#80a7ff" opacity=".6"/><circle cx="889.9" cy="950.5" r="2.8" fill="#80a7ff" opacity=".6"/><circle cx="407.7" cy="566.3" r="1.1" fill="#80a7ff" opacity=".6"/><circle cx="816.1" cy="482.9" r="1.1" fill="#80a7ff" opacity=".6"/><circle cx="513.7" cy="865.0" r="1.1" fill="#ffab00" opacity=".6"/><circle cx="437.2" cy="307.3" r="1.1" fill="#80a7ff" opacity=".6"/><circle cx="995.4" cy="736.3" r="1.1" fill="#80a7ff" opacity=".6"/><circle cx="151.9" cy="755.6" r="1.1" fill="#80a7ff" opacity=".6"/><circle cx="683.0" cy="449.9" r="2.8" fill="#80a7ff" opacity=".6"/><circle cx="668.8" cy="809.3" r="1.1" fill="#ffab00" opacity=".6"/><circle cx="341.7" cy="460.7" r="1.1" fill="#80a7ff" opacity=".6"/><circle cx="952.1" cy="537.5" r="1.1" fill="#80a7ff" opacity=".6"/><circle cx="354.2" cy="898.7" r="1.1" fill="#80a7ff" opacity=".6"/><circle cx="548.4" cy="181.5" r="1.1" fill="#80a7ff" opacity=".6"/><circle cx="735.4" cy="705.6" r="1.1" fill="#ffab00" opacity=".6"/><circle cx="363.1" cy="604.6" r="2.8" fill="#80a7ff" opacity=".6"/><circle cx="812.4" cy="419.1" r="1.1" fill="#80a7ff" opacity=".6"/><circle cx="577.0" cy="911.7" r="1.1" fill="#80a7ff" opacity=".6"/><circle cx="344.7" cy="316.7" r="1.1" fill="#80a7ff" opacity=".6"/><circle cx="1059.6" cy="663.2" r="1.1" fill="#ffab00" opacity=".6"/><circle cx="456.9" cy="685.0" r="1.1" fill="#80a7ff" opacity=".6"/><circle cx="654.6" cy="402.1" r="1.1" fill="#80a7ff" opacity=".6"/><circle cx="737.3" cy="823.3" r="2.8" fill="#80a7ff" opacity=".6"/><circle cx="275.3" cy="501.6" r="1.1" fill="#80a7ff" opacity=".6"/><circle cx="966.3" cy="457.0" r="1.1" fill="#ffab00" opacity=".6"/><circle cx="415.4" cy="972.1" r="1.1" fill="#80a7ff" opacity=".6"/><circle cx="547.5" cy="461.7" r="1.1" fill="#80a7ff" opacity=".6"/><circle cx="793.6" cy="694.9" r="1.1" fill="#80a7ff" opacity=".6"/><circle cx="329.9" cy="658.4" r="1.1" fill="#80a7ff" opacity=".6"/><circle cx="786.6" cy="352.4" r="2.8" fill="#ffab00" opacity=".6"/><circle cx="658.9" cy="944.9" r="1.1" fill="#80a7ff" opacity=".6"/><circle cx="250.4" cy="349.2" r="1.1" fill="#80a7ff" opacity=".6"/><circle cx="1105.0" cy="571.6" r="1.1" fill="#80a7ff" opacity=".6"/><circle cx="452.3" cy="736.6" r="1.1" fill="#80a7ff" opacity=".6"/><circle cx="606.6" cy="359.8" r="1.1" fill="#ffab00" opacity=".6"/><circle cx="814.9" cy="819.3" r="1.1" fill="#80a7ff" opacity=".6"/><circle cx="218.4" cy="561.8" r="2.8" fill="#80a7ff" opacity=".6"/><circle cx="956.4" cy="368.8" r="1.1" fill="#80a7ff" opacity=".6"/><circle cx="501.3" cy="1034.4" r="1.1" fill="#80a7ff" opacity=".6"/><circle cx="494.2" cy="443.7" r="1.1" fill="#ffab00" opacity=".6"/><circle cx="851.3" cy="666.0" r="1.1" fill="#80a7ff" opacity=".6"/><circle cx="313.4" cy="724.7" r="1.1" fill="#80a7ff" opacity=".6"/><circle cx="737.5" cy="288.6" r="1.1" fill="#80a7ff" opacity=".6"/><circle cx="755.4" cy="959.7" r="2.8" fill="#80a7ff" opacity=".6"/><circle cx="161.4" cy="405.6" r="1.1" fill="#ffab00" opacity=".6"/><circle cx="789.3" cy="551.6" r="1.1" fill="#80a7ff" opacity=".6"/><circle cx="467.3" cy="792.8" r="1.1" fill="#80a7ff" opacity=".6"/><circle cx="540.6" cy="328.3" r="1.1" fill="#80a7ff" opacity=".6"/><circle cx="895.8" cy="794.8" r="1.1" fill="#80a7ff" opacity=".6"/><circle cx="177.3" cy="639.5" r="1.1" fill="#ffab00" opacity=".6"/><circle cx="919.5" cy="278.8" r="2.8" fill="#80a7ff" opacity=".6"/><circle cx="603.2" cy="768.2" r="1.1" fill="#80a7ff" opacity=".6"/><circle cx="430.8" cy="441.1" r="1.1" fill="#80a7ff" opacity=".6"/><circle cx="902.2" cy="619.0" r="1.1" fill="#80a7ff" opacity=".6"/><circle cx="318.1" cy="799.2" r="1.1" fill="#ffab00" opacity=".6"/><circle cx="665.6" cy="233.5" r="1.1" fill="#80a7ff" opacity=".6"/><circle cx="861.2" cy="952.0" r="1.1" fill="#80a7ff" opacity=".6"/><circle cx="424.4" cy="560.8" r="2.8" fill="#80a7ff" opacity=".6"/><circle cx="809.3" cy="499.2" r="1.1" fill="#80a7ff" opacity=".6"/><circle cx="503.5" cy="848.1" r="1.1" fill="#ffab00" opacity=".6"/><circle cx="460.2" cy="312.5" r="1.1" fill="#80a7ff" opacity=".6"/><circle cx="973.3" cy="748.7" r="1.1" fill="#80a7ff" opacity=".6"/><circle cx="157.8" cy="730.8" r="1.1" fill="#80a7ff" opacity=".6"/><circle cx="684.2" cy="465.5" r="1.1" fill="#80a7ff" opacity=".6"/><circle cx="653.2" cy="799.2" r="2.8" fill="#ffab00" opacity=".6"/><circle cx="362.4" cy="456.7" r="1.1" fill="#80a7ff" opacity=".6"/><circle cx="940.3" cy="555.5" r="1.1" fill="#80a7ff" opacity=".6"/><circle cx="346.8" cy="876.8" r="1.1" fill="#80a7ff" opacity=".6"/><circle cx="573.3" cy="193.1" r="1.1" fill="#80a7ff" opacity=".6"/><circle cx="718.4" cy="702.3" r="1.1" fill="#ffab00" opacity=".6"/><circle cx="378.1" cy="594.2" r="1.1" fill="#80a7ff" opacity=".6"/><circle cx="811.1" cy="437.7" r="2.8" fill="#80a7ff" opacity=".6"/><circle cx="560.9" cy="897.0" r="1.1" fill="#80a7ff" opacity=".6"/><circle cx="370.1" cy="316.3" r="1.1" fill="#80a7ff" opacity=".6"/><circle cx="1040.6" cy="681.3" r="1.1" fill="#ffab00" opacity=".6"/><circle cx="164.4" cy="831.0" r="1.1" fill="#80a7ff" opacity=".6"/><circle cx="661.6" cy="417.6" r="1.1" fill="#80a7ff" opacity=".6"/><circle cx="717.8" cy="817.2" r="1.1" fill="#80a7ff" opacity=".6"/><circle cx="295.3" cy="491.9" r="2.8" fill="#80a7ff" opacity=".6"/><circle cx="960.0" cy="478.6" r="1.1" fill="#ffab00" opacity=".6"/><circle cx="401.0" cy="951.3" r="1.1" fill="#80a7ff" opacity=".6"/><circle cx="464.6" cy="172.5" r="1.1" fill="#80a7ff" opacity=".6"/><circle cx="775.1" cy="696.5" r="1.1" fill="#80a7ff" opacity=".6"/><circle cx="341.6" cy="643.6" r="1.1" fill="#80a7ff" opacity=".6"/><circle cx="791.6" cy="371.9" r="1.1" fill="#ffab00" opacity=".6"/><circle cx="637.5" cy="933.9" r="2.8" fill="#80a7ff" opacity=".6"/><circle cx="276.5" cy="342.6" r="1.1" fill="#80a7ff" opacity=".6"/><circle cx="1091.0" cy="594.7" r="1.1" fill="#80a7ff" opacity=".6"/><circle cx="455.6" cy="720.6" r="1.1" fill="#80a7ff" opacity=".6"/><circle cx="619.2" cy="373.7" r="1.1" fill="#ffab00" opacity=".6"/><circle cx="792.8" cy="818.3" r="1.1" fill="#80a7ff" opacity=".6"/><circle cx="235.9" cy="546.7" r="1.1" fill="#80a7ff" opacity=".6"/><circle cx="956.6" cy="392.6" r="2.8" fill="#80a7ff" opacity=".6"/><circle cx="480.3" cy="1016.5" r="1.1" fill="#80a7ff" opacity=".6"/></svg>